<?xml version="1.0"?>
<svg width="640" height="480" xmlns="http://www.w3.org/2000/svg" xmlns:svg="http://www.w3.org/2000/svg">
 <!-- Created with SVG-edit - https://github.com/SVG-Edit/svgedit-->

 <g class="layer">
  <title>Layer 1</title>
  <!-- table0 -->
  <!-- table1 -->
  <!-- table0&#45;&gt;table1 -->
  <!-- table3 -->
  <!-- table3&#45;&gt;table1 -->
  <!-- table0 -->
  <!-- table1 -->
  <!-- table0&#45;&gt;table1 -->
  <!-- table3 -->
  <!-- table4 -->
  <!-- table3&#45;&gt;table4 -->
  <!-- table0 -->
  <!-- table1 -->
  <!-- table0&#45;&gt;table1 -->
  <!-- table3 -->
  <!-- table4 -->
  <!-- table0 -->
  <!-- table1 -->
  <!-- table0&#45;&gt;table1 -->
  <!-- table3 -->
  <!-- table3&#45;&gt;table1 -->
  <!-- table0 -->
  <!-- table1 -->
  <!-- table0&#45;&gt;table1 -->
  <!-- table3 -->
  <!-- table3&#45;&gt;table1 -->
  <rect fill="#000000" fill-opacity="0" height="0" id="svg_525" opacity="0.5" stroke="#000000" stroke-dasharray="null" stroke-linecap="null" stroke-linejoin="null" width="0" x="127.548095" y="56.778833"/>
  <g id="svg_527">
   <polygon fill="#ffffff" id="svg_461" points="91.05332674291549,479.6007900238037 91.05332674291549,0.20607280731201172 548.1662455632832,0.20607280731201172 548.1662455632832,479.6007900238037 91.05332674291549,479.6007900238037 " stroke="transparent"/>
   <g class="node" id="svg_459" transform="matrix(1.92875, 0, 0, 1.98097, 7.90292, 471.677)">
    <title>table0</title>
    <polyline fill="none" id="svg_462" points="55.11111068725586,-210 143.11111068725586,-210 " stroke="#000000"/>
    <text fill="#000000" font-family="Times,serif" font-size="14" id="svg_463" text-anchor="start" x="92.887011" y="-215.8">s1</text>
    <polygon fill="none" id="svg_464" points="55.11111068725586,-190 55.11111068725586,-210 107.11111068725586,-210 107.11111068725586,-190 55.11111068725586,-190 " stroke="#000000"/>
    <text fill="#000000" font-family="Times,serif" font-size="14" id="svg_465" text-anchor="start" x="65.952411" y="-195.8">name</text>
    <polygon fill="none" id="svg_466" points="107.11111068725586,-190 107.11111068725586,-210 143.11111068725586,-210 143.11111068725586,-190 107.11111068725586,-190 " stroke="#000000"/>
    <text fill="#000000" font-family="Times,serif" font-size="14" id="svg_467" text-anchor="start" x="109.952411" y="-195.8">value</text>
    <polygon fill="none" id="svg_468" points="55.11111068725586,-170 55.11111068725586,-190 107.11111068725586,-190 107.11111068725586,-170 55.11111068725586,-170 " stroke="#000000"/>
    <text fill="#000000" font-family="Times,serif" font-size="14" id="svg_469" text-anchor="start" x="73.335211" y="-175.8">ptr</text>
    <polygon fill="none" id="svg_470" points="107.11111068725586,-170 107.11111068725586,-190 143.11111068725586,-190 143.11111068725586,-170 107.11111068725586,-170 " stroke="#000000"/>
    <polygon fill="none" id="svg_471" points="55.11111068725586,-150 55.11111068725586,-170 107.11111068725586,-170 107.11111068725586,-150 55.11111068725586,-150 " stroke="#000000"/>
    <text fill="#000000" font-family="Times,serif" font-size="14" id="svg_472" text-anchor="start" x="72.559311" y="-155.8">len</text>
    <polygon fill="none" id="svg_473" points="107.11111068725586,-150 107.11111068725586,-170 143.11111068725586,-170 143.11111068725586,-150 107.11111068725586,-150 " stroke="#000000"/>
    <text fill="#000000" font-family="Times,serif" font-size="14" id="svg_474" text-anchor="start" x="121.611111" y="-155.8">5</text>
    <polygon fill="none" id="svg_475" points="55.11111068725586,-130 55.11111068725586,-150 107.11111068725586,-150 107.11111068725586,-130 55.11111068725586,-130 " stroke="#000000"/>
    <text fill="#000000" font-family="Times,serif" font-size="14" id="svg_476" text-anchor="start" x="57.793711" y="-135.8">capacity</text>
    <polygon fill="none" id="svg_477" points="107.11111068725586,-130 107.11111068725586,-150 143.11111068725586,-150 143.11111068725586,-130 107.11111068725586,-130 " stroke="#000000"/>
    <text fill="#000000" font-family="Times,serif" font-size="14" id="svg_478" text-anchor="start" x="121.611111" y="-135.8">5</text>
   </g>
   <g class="node" id="svg_458" transform="matrix(1.92875, 0, 0, 1.98097, 7.90292, 471.677)">
    <title>table1</title>
    <polygon fill="none" id="svg_479" points="195.61111068725586,-127 195.61111068725586,-147 232.61111068725586,-147 232.61111068725586,-127 195.61111068725586,-127 " stroke="#000000"/>
    <text fill="#000000" font-family="Times,serif" font-size="14" id="svg_480" text-anchor="start" x="198.559311" y="-132.8">index</text>
    <polygon fill="none" id="svg_481" points="232.61111068725586,-127 232.61111068725586,-147 268.61111068725586,-147 268.61111068725586,-127 232.61111068725586,-127 " stroke="#000000"/>
    <text fill="#000000" font-family="Times,serif" font-size="14" id="svg_482" text-anchor="start" x="235.452411" y="-132.8">value</text>
    <polygon fill="none" id="svg_483" points="195.61111068725586,-107 195.61111068725586,-127 232.61111068725586,-127 232.61111068725586,-107 195.61111068725586,-107 " stroke="#000000"/>
    <text fill="#000000" font-family="Times,serif" font-size="14" id="svg_484" text-anchor="start" x="210.611111" y="-112.8">0</text>
    <polygon fill="none" id="svg_485" points="232.61111068725586,-107 232.61111068725586,-127 268.61111068725586,-127 268.61111068725586,-107 232.61111068725586,-107 " stroke="#000000"/>
    <text fill="#000000" font-family="Times,serif" font-size="14" id="svg_486" text-anchor="start" x="247.111111" y="-112.8">h</text>
    <polygon fill="none" id="svg_487" points="195.61111068725586,-87 195.61111068725586,-107 232.61111068725586,-107 232.61111068725586,-87 195.61111068725586,-87 " stroke="#000000"/>
    <text fill="#000000" font-family="Times,serif" font-size="14" id="svg_488" text-anchor="start" x="210.611111" y="-92.8">1</text>
    <polygon fill="none" id="svg_489" points="232.61111068725586,-87 232.61111068725586,-107 268.61111068725586,-107 268.61111068725586,-87 232.61111068725586,-87 " stroke="#000000"/>
    <text fill="#000000" font-family="Times,serif" font-size="14" id="svg_490" text-anchor="start" x="247.504211" y="-92.8">e</text>
    <polygon fill="none" id="svg_491" points="195.61111068725586,-67 195.61111068725586,-87 232.61111068725586,-87 232.61111068725586,-67 195.61111068725586,-67 " stroke="#000000"/>
    <text fill="#000000" font-family="Times,serif" font-size="14" id="svg_492" text-anchor="start" x="210.611111" y="-72.8">2</text>
    <polygon fill="none" id="svg_493" points="232.61111068725586,-67 232.61111068725586,-87 268.61111068725586,-87 268.61111068725586,-67 232.61111068725586,-67 " stroke="#000000"/>
    <text fill="#000000" font-family="Times,serif" font-size="14" id="svg_494" text-anchor="start" x="248.666311" y="-72.8">l</text>
    <polygon fill="none" id="svg_495" points="195.61111068725586,-47 195.61111068725586,-67 232.61111068725586,-67 232.61111068725586,-47 195.61111068725586,-47 " stroke="#000000"/>
    <text fill="#000000" font-family="Times,serif" font-size="14" id="svg_496" text-anchor="start" x="210.611111" y="-52.8">3</text>
    <polygon fill="none" id="svg_497" points="232.61111068725586,-47 232.61111068725586,-67 268.61111068725586,-67 268.61111068725586,-47 232.61111068725586,-47 " stroke="#000000"/>
    <text fill="#000000" font-family="Times,serif" font-size="14" id="svg_498" text-anchor="start" x="248.666311" y="-52.8">l</text>
    <polygon fill="none" id="svg_499" points="195.61111068725586,-27 195.61111068725586,-47 232.61111068725586,-47 232.61111068725586,-27 195.61111068725586,-27 " stroke="#000000"/>
    <text fill="#000000" font-family="Times,serif" font-size="14" id="svg_500" text-anchor="start" x="210.611111" y="-32.8">4</text>
    <polygon fill="none" id="svg_501" points="232.61111068725586,-27 232.61111068725586,-47 268.61111068725586,-47 268.61111068725586,-27 232.61111068725586,-27 " stroke="#000000"/>
    <text fill="#000000" font-family="Times,serif" font-size="14" id="svg_502" text-anchor="start" x="247.111111" y="-32.8">o</text>
   </g>
   <g class="edge" id="svg_457" transform="matrix(1.92875, 0, 0, 1.98097, 7.90292, 471.677)">
    <title>table0:c-&gt;table1:pointee</title>
    <path d="m125.111111,-180c0,0 23.9982,53.088 60.4405,61.7977" fill="none" id="svg_503" stroke="#000000"/>
    <polygon fill="#000000" id="svg_504" points="186.09710311889648,-121.66210174560547 195.61111068725586,-117 185.26641464233398,-114.71150207519531 186.09710311889648,-121.66210174560547 " stroke="#000000"/>
   </g>
   <g class="node" id="svg_456" transform="matrix(1.92875, 0, 0, 1.98097, 7.90292, 471.677)">
    <title>table3</title>
    <polyline fill="none" id="svg_505" points="55.11111068725586,-84 143.11111068725586,-84 " stroke="#000000"/>
    <text fill="#000000" font-family="Times,serif" font-size="14" id="svg_506" text-anchor="start" x="92.887011" y="-89.8">s2</text>
    <polygon fill="none" id="svg_507" points="55.11111068725586,-64 55.11111068725586,-84 107.11111068725586,-84 107.11111068725586,-64 55.11111068725586,-64 " stroke="#000000"/>
    <text fill="#000000" font-family="Times,serif" font-size="14" id="svg_508" text-anchor="start" x="65.952411" y="-69.8">name</text>
    <polygon fill="none" id="svg_509" points="107.11111068725586,-64 107.11111068725586,-84 143.11111068725586,-84 143.11111068725586,-64 107.11111068725586,-64 " stroke="#000000"/>
    <text fill="#000000" font-family="Times,serif" font-size="14" id="svg_510" text-anchor="start" x="109.952411" y="-69.8">value</text>
    <polygon fill="none" id="svg_511" points="55.11111068725586,-44 55.11111068725586,-64 107.11111068725586,-64 107.11111068725586,-44 55.11111068725586,-44 " stroke="#000000"/>
    <text fill="#000000" font-family="Times,serif" font-size="14" id="svg_512" text-anchor="start" x="73.335211" y="-49.8">ptr</text>
    <polygon fill="none" id="svg_513" points="107.11111068725586,-44 107.11111068725586,-64 143.11111068725586,-64 143.11111068725586,-44 107.11111068725586,-44 " stroke="#000000"/>
    <polygon fill="none" id="svg_514" points="55.11111068725586,-24 55.11111068725586,-44 107.11111068725586,-44 107.11111068725586,-24 55.11111068725586,-24 " stroke="#000000"/>
    <text fill="#000000" font-family="Times,serif" font-size="14" id="svg_515" text-anchor="start" x="72.559311" y="-29.8">len</text>
    <polygon fill="none" id="svg_516" points="107.11111068725586,-24 107.11111068725586,-44 143.11111068725586,-44 143.11111068725586,-24 107.11111068725586,-24 " stroke="#000000"/>
    <text fill="#000000" font-family="Times,serif" font-size="14" id="svg_517" text-anchor="start" x="121.611111" y="-29.8">5</text>
    <polygon fill="none" id="svg_518" points="55.11111068725586,-4 55.11111068725586,-24 107.11111068725586,-24 107.11111068725586,-4 55.11111068725586,-4 " stroke="#000000"/>
    <text fill="#000000" font-family="Times,serif" font-size="14" id="svg_519" text-anchor="start" x="57.793711" y="-9.8">capacity</text>
    <polygon fill="none" id="svg_520" points="107.11111068725586,-4 107.11111068725586,-24 143.11111068725586,-24 143.11111068725586,-4 107.11111068725586,-4 " stroke="#000000"/>
    <text fill="#000000" font-family="Times,serif" font-size="14" id="svg_521" text-anchor="start" x="121.611111" y="-9.8">5</text>
   </g>
   <g class="edge" id="svg_455" transform="matrix(1.92875, 0, 0, 1.98097, 7.90292, 471.677)">
    <title>table3:c-&gt;table1:pointee</title>
    <path d="m125.111111,-54c0,0 23.9982,-53.088 60.4405,-61.7977" fill="none" id="svg_522" stroke="#000000"/>
    <polygon fill="#000000" id="svg_523" points="185.26641464233398,-119.28849792480469 195.61111068725586,-117 186.09710311889648,-112.33789825439453 185.26641464233398,-119.28849792480469 " stroke="#000000"/>
   </g>
   <rect fill="#000000" fill-opacity="0" height="41.826924" id="svg_524" stroke="#000000" stroke-dasharray="null" stroke-linecap="null" stroke-linejoin="null" stroke-width="2" width="169.711538" x="114.086558" y="13.02883"/>
   <rect fill="#000000" fill-opacity="0" height="41.826924" id="svg_526" stroke="#000000" stroke-dasharray="null" stroke-linecap="null" stroke-linejoin="null" stroke-width="2" width="169.711538" x="114.32693" y="263.749995"/>
  </g>
 </g>
</svg>