<?xml version="1.0"?>
<svg width="640" height="480" xmlns="http://www.w3.org/2000/svg" xmlns:svg="http://www.w3.org/2000/svg">
 <!-- Created with SVG-edit - https://github.com/SVG-Edit/svgedit-->

 <g class="layer">
  <title>Layer 1</title>
  <!-- table0 -->
  <!-- table1 -->
  <!-- table0&#45;&gt;table1 -->
  <!-- table3 -->
  <!-- table3&#45;&gt;table1 -->
  <!-- table0 -->
  <!-- table1 -->
  <!-- table0&#45;&gt;table1 -->
  <!-- table3 -->
  <!-- table3&#45;&gt;table1 -->
  <g id="svg_237">
   <polygon fill="#ffffff" id="svg_171" points="51.18975830078125,478.299612224102 51.18975830078125,3.158338725566864 529.7928466796875,3.158338725566864 529.7928466796875,478.299612224102 51.18975830078125,478.299612224102 " stroke="transparent"/>
   <g class="node" id="svg_169" transform="matrix(2.01942, 0, 0, 1.96339, 416.515, 666.483)">
    <title>table0</title>
    <polygon fill="#c0c0c0" id="svg_172" points="-168.90499877929688,-229.8451312482357 -168.90499877929688,-329.8451312482357 -80.9050064086914,-329.8451312482357 -80.9050064086914,-229.8451312482357 -168.90499877929688,-229.8451312482357 " stroke="transparent"/>
    <polyline fill="none" id="svg_173" points="-168.90499877929688,-309.8451312482357 -80.9050064086914,-309.8451312482357 " stroke="#000000"/>
    <text fill="#000000" font-family="Times,serif" font-size="14" id="svg_174" text-anchor="start" x="-131.129122" y="-315.645116">s1</text>
    <polygon fill="none" id="svg_175" points="-168.90499877929688,-289.8451312482357 -168.90499877929688,-309.8451312482357 -116.9050064086914,-309.8451312482357 -116.9050064086914,-289.8451312482357 -168.90499877929688,-289.8451312482357 " stroke="#000000"/>
    <text fill="#000000" font-family="Times,serif" font-size="14" id="svg_176" text-anchor="start" x="-158.063722" y="-295.645116">name</text>
    <polygon fill="none" id="svg_177" points="-116.9050064086914,-289.8451312482357 -116.9050064086914,-309.8451312482357 -80.9050064086914,-309.8451312482357 -80.9050064086914,-289.8451312482357 -116.9050064086914,-289.8451312482357 " stroke="#000000"/>
    <text fill="#000000" font-family="Times,serif" font-size="14" id="svg_178" text-anchor="start" x="-114.063722" y="-295.645116">value</text>
    <polygon fill="none" id="svg_179" points="-168.90499877929688,-269.8451312482357 -168.90499877929688,-289.8451312482357 -116.9050064086914,-289.8451312482357 -116.9050064086914,-269.8451312482357 -168.90499877929688,-269.8451312482357 " stroke="#000000"/>
    <text fill="#000000" font-family="Times,serif" font-size="14" id="svg_180" text-anchor="start" x="-150.680922" y="-275.645116">ptr</text>
    <polygon fill="none" id="svg_181" points="-116.9050064086914,-269.8451312482357 -116.9050064086914,-289.8451312482357 -80.9050064086914,-289.8451312482357 -80.9050064086914,-269.8451312482357 -116.9050064086914,-269.8451312482357 " stroke="#000000"/>
    <polygon fill="none" id="svg_182" points="-168.90499877929688,-249.8451312482357 -168.90499877929688,-269.8451312482357 -116.9050064086914,-269.8451312482357 -116.9050064086914,-249.8451312482357 -168.90499877929688,-249.8451312482357 " stroke="#000000"/>
    <text fill="#000000" font-family="Times,serif" font-size="14" id="svg_183" text-anchor="start" x="-151.456822" y="-255.645116">len</text>
    <polygon fill="none" id="svg_184" points="-116.9050064086914,-249.8451312482357 -116.9050064086914,-269.8451312482357 -80.9050064086914,-269.8451312482357 -80.9050064086914,-249.8451312482357 -116.9050064086914,-249.8451312482357 " stroke="#000000"/>
    <text fill="#000000" font-family="Times,serif" font-size="14" id="svg_185" text-anchor="start" x="-102.405022" y="-255.645116">5</text>
    <polygon fill="none" id="svg_186" points="-168.90499877929688,-229.8451312482357 -168.90499877929688,-249.8451312482357 -116.9050064086914,-249.8451312482357 -116.9050064086914,-229.8451312482357 -168.90499877929688,-229.8451312482357 " stroke="#000000"/>
    <text fill="#000000" font-family="Times,serif" font-size="14" id="svg_187" text-anchor="start" x="-166.222422" y="-235.645116">capacity</text>
    <polygon fill="none" id="svg_188" points="-116.9050064086914,-229.8451312482357 -116.9050064086914,-249.8451312482357 -80.9050064086914,-249.8451312482357 -80.9050064086914,-229.8451312482357 -116.9050064086914,-229.8451312482357 " stroke="#000000"/>
    <text fill="#000000" font-family="Times,serif" font-size="14" id="svg_189" text-anchor="start" x="-102.405022" y="-235.645116">5</text>
   </g>
   <g class="node" id="svg_168" transform="matrix(2.01942, 0, 0, 1.96339, 416.515, 666.483)">
    <title>table1</title>
    <polygon fill="none" id="svg_190" points="-28.40502166748047,-226.8451312482357 -28.40502166748047,-246.8451312482357 8.594963073730469,-246.8451312482357 8.594963073730469,-226.8451312482357 -28.40502166748047,-226.8451312482357 " stroke="#000000"/>
    <text fill="#000000" font-family="Times,serif" font-size="14" id="svg_191" text-anchor="start" x="-25.456822" y="-232.645116">index</text>
    <polygon fill="none" id="svg_192" points="8.594963073730469,-226.8451312482357 8.594963073730469,-246.8451312482357 44.59496307373047,-246.8451312482357 44.59496307373047,-226.8451312482357 8.594963073730469,-226.8451312482357 " stroke="#000000"/>
    <text fill="#000000" font-family="Times,serif" font-size="14" id="svg_193" text-anchor="start" x="11.436278" y="-232.645116">value</text>
    <polygon fill="none" id="svg_194" points="-28.40502166748047,-206.8451312482357 -28.40502166748047,-226.8451312482357 8.594963073730469,-226.8451312482357 8.594963073730469,-206.8451312482357 -28.40502166748047,-206.8451312482357 " stroke="#000000"/>
    <text fill="#000000" font-family="Times,serif" font-size="14" id="svg_195" text-anchor="start" x="-13.405022" y="-212.645116">0</text>
    <polygon fill="none" id="svg_196" points="8.594963073730469,-206.8451312482357 8.594963073730469,-226.8451312482357 44.59496307373047,-226.8451312482357 44.59496307373047,-206.8451312482357 8.594963073730469,-206.8451312482357 " stroke="#000000"/>
    <text fill="#000000" font-family="Times,serif" font-size="14" id="svg_197" text-anchor="start" x="23.094978" y="-212.645116">h</text>
    <polygon fill="none" id="svg_198" points="-28.40502166748047,-186.8451312482357 -28.40502166748047,-206.8451312482357 8.594963073730469,-206.8451312482357 8.594963073730469,-186.8451312482357 -28.40502166748047,-186.8451312482357 " stroke="#000000"/>
    <text fill="#000000" font-family="Times,serif" font-size="14" id="svg_199" text-anchor="start" x="-13.405022" y="-192.645116">1</text>
    <polygon fill="none" id="svg_200" points="8.594963073730469,-186.8451312482357 8.594963073730469,-206.8451312482357 44.59496307373047,-206.8451312482357 44.59496307373047,-186.8451312482357 8.594963073730469,-186.8451312482357 " stroke="#000000"/>
    <text fill="#000000" font-family="Times,serif" font-size="14" id="svg_201" text-anchor="start" x="23.488078" y="-192.645116">e</text>
    <polygon fill="none" id="svg_202" points="-28.40502166748047,-166.8451312482357 -28.40502166748047,-186.8451312482357 8.594963073730469,-186.8451312482357 8.594963073730469,-166.8451312482357 -28.40502166748047,-166.8451312482357 " stroke="#000000"/>
    <text fill="#000000" font-family="Times,serif" font-size="14" id="svg_203" text-anchor="start" x="-13.405022" y="-172.645116">2</text>
    <polygon fill="none" id="svg_204" points="8.594963073730469,-166.8451312482357 8.594963073730469,-186.8451312482357 44.59496307373047,-186.8451312482357 44.59496307373047,-166.8451312482357 8.594963073730469,-166.8451312482357 " stroke="#000000"/>
    <text fill="#000000" font-family="Times,serif" font-size="14" id="svg_205" text-anchor="start" x="24.650178" y="-172.645116">l</text>
    <polygon fill="none" id="svg_206" points="-28.40502166748047,-146.8451312482357 -28.40502166748047,-166.8451312482357 8.594963073730469,-166.8451312482357 8.594963073730469,-146.8451312482357 -28.40502166748047,-146.8451312482357 " stroke="#000000"/>
    <text fill="#000000" font-family="Times,serif" font-size="14" id="svg_207" text-anchor="start" x="-13.405022" y="-152.645116">3</text>
    <polygon fill="none" id="svg_208" points="8.594963073730469,-146.8451312482357 8.594963073730469,-166.8451312482357 44.59496307373047,-166.8451312482357 44.59496307373047,-146.8451312482357 8.594963073730469,-146.8451312482357 " stroke="#000000"/>
    <text fill="#000000" font-family="Times,serif" font-size="14" id="svg_209" text-anchor="start" x="24.650178" y="-152.645116">l</text>
    <polygon fill="none" id="svg_210" points="-28.40502166748047,-126.84512361884117 -28.40502166748047,-146.8451312482357 8.594963073730469,-146.8451312482357 8.594963073730469,-126.84512361884117 -28.40502166748047,-126.84512361884117 " stroke="#000000"/>
    <text fill="#000000" font-family="Times,serif" font-size="14" id="svg_211" text-anchor="start" x="-13.405022" y="-132.645116">4</text>
    <polygon fill="none" id="svg_212" points="8.594963073730469,-126.84512361884117 8.594963073730469,-146.8451312482357 44.59496307373047,-146.8451312482357 44.59496307373047,-126.84512361884117 8.594963073730469,-126.84512361884117 " stroke="#000000"/>
    <text fill="#000000" font-family="Times,serif" font-size="14" id="svg_213" text-anchor="start" x="23.094978" y="-132.645116">o</text>
   </g>
   <g class="edge" id="svg_167" transform="matrix(2.01942, 0, 0, 1.96339, 416.515, 666.483)">
    <title>table0:c-&gt;table1:pointee</title>
    <path d="m-98.905022,-279.845116c0,0 23.9982,53.088 60.4405,61.7977" fill="none" id="svg_214" stroke="#000000"/>
    <polygon fill="#000000" id="svg_215" points="-37.919029235839844,-221.50721010565758 -28.40502166748047,-216.8451312482357 -38.749717712402344,-214.55661806464195 -37.919029235839844,-221.50721010565758 " stroke="#000000"/>
   </g>
   <g class="node" id="svg_166" transform="matrix(2.01942, 0, 0, 1.96339, 416.515, 666.483)">
    <title>table3</title>
    <polyline fill="none" id="svg_216" points="-168.90499877929688,-183.8451312482357 -80.9050064086914,-183.8451312482357 " stroke="#000000"/>
    <text fill="#000000" font-family="Times,serif" font-size="14" id="svg_217" text-anchor="start" x="-131.129122" y="-189.645116">s2</text>
    <polygon fill="none" id="svg_218" points="-168.90499877929688,-163.8451312482357 -168.90499877929688,-183.8451312482357 -116.9050064086914,-183.8451312482357 -116.9050064086914,-163.8451312482357 -168.90499877929688,-163.8451312482357 " stroke="#000000"/>
    <text fill="#000000" font-family="Times,serif" font-size="14" id="svg_219" text-anchor="start" x="-158.063722" y="-169.645116">name</text>
    <polygon fill="none" id="svg_220" points="-116.9050064086914,-163.8451312482357 -116.9050064086914,-183.8451312482357 -80.9050064086914,-183.8451312482357 -80.9050064086914,-163.8451312482357 -116.9050064086914,-163.8451312482357 " stroke="#000000"/>
    <text fill="#000000" font-family="Times,serif" font-size="14" id="svg_221" text-anchor="start" x="-114.063722" y="-169.645116">value</text>
    <polygon fill="none" id="svg_222" points="-168.90499877929688,-143.8451312482357 -168.90499877929688,-163.8451312482357 -116.9050064086914,-163.8451312482357 -116.9050064086914,-143.8451312482357 -168.90499877929688,-143.8451312482357 " stroke="#000000"/>
    <text fill="#000000" font-family="Times,serif" font-size="14" id="svg_223" text-anchor="start" x="-150.680922" y="-149.645116">ptr</text>
    <polygon fill="none" id="svg_224" points="-116.9050064086914,-143.8451312482357 -116.9050064086914,-163.8451312482357 -80.9050064086914,-163.8451312482357 -80.9050064086914,-143.8451312482357 -116.9050064086914,-143.8451312482357 " stroke="#000000"/>
    <polygon fill="none" id="svg_225" points="-168.90499877929688,-123.84512361884117 -168.90499877929688,-143.8451312482357 -116.9050064086914,-143.8451312482357 -116.9050064086914,-123.84512361884117 -168.90499877929688,-123.84512361884117 " stroke="#000000"/>
    <text fill="#000000" font-family="Times,serif" font-size="14" id="svg_226" text-anchor="start" x="-151.456822" y="-129.645116">len</text>
    <polygon fill="none" id="svg_227" points="-116.9050064086914,-123.84512361884117 -116.9050064086914,-143.8451312482357 -80.9050064086914,-143.8451312482357 -80.9050064086914,-123.84512361884117 -116.9050064086914,-123.84512361884117 " stroke="#000000"/>
    <text fill="#000000" font-family="Times,serif" font-size="14" id="svg_228" text-anchor="start" x="-102.405022" y="-129.645116">5</text>
    <polygon fill="none" id="svg_229" points="-168.90499877929688,-103.84512361884117 -168.90499877929688,-123.84512361884117 -116.9050064086914,-123.84512361884117 -116.9050064086914,-103.84512361884117 -168.90499877929688,-103.84512361884117 " stroke="#000000"/>
    <text fill="#000000" font-family="Times,serif" font-size="14" id="svg_230" text-anchor="start" x="-166.222422" y="-109.645116">capacity</text>
    <polygon fill="none" id="svg_231" points="-116.9050064086914,-103.84512361884117 -116.9050064086914,-123.84512361884117 -80.9050064086914,-123.84512361884117 -80.9050064086914,-103.84512361884117 -116.9050064086914,-103.84512361884117 " stroke="#000000"/>
    <text fill="#000000" font-family="Times,serif" font-size="14" id="svg_232" text-anchor="start" x="-102.405022" y="-109.645116">5</text>
   </g>
   <g class="edge" id="svg_165" transform="matrix(2.01942, 0, 0, 1.96339, 416.515, 666.483)">
    <title>table3:c-&gt;table1:pointee</title>
    <path d="m-98.905022,-153.845116c0,0 23.9982,-53.088 60.4405,-61.7977" fill="none" id="svg_233" stroke="#000000"/>
    <polygon fill="#000000" id="svg_234" points="-38.749717712402344,-219.13361391425133 -28.40502166748047,-216.8451312482357 -37.919029235839844,-212.1830218732357 -38.749717712402344,-219.13361391425133 " stroke="#000000"/>
   </g>
   <rect fill="#000000" fill-opacity="0" height="36.817789" id="svg_235" stroke="#000000" stroke-dasharray="null" stroke-linecap="null" stroke-linejoin="null" stroke-width="0.5" width="178.823186" x="74.490236" y="21.118511"/>
   <rect fill="#000000" fill-opacity="0" height="36.817789" id="svg_236" stroke="#000000" stroke-dasharray="null" stroke-linecap="null" stroke-linejoin="null" stroke-width="0.5" width="178.823186" x="74.314842" y="270.218057"/>
  </g>
  <rect fill="#000000" fill-opacity="0" height="39.423078" id="svg_238" stroke="#000000" stroke-dasharray="null" stroke-linecap="null" stroke-linejoin="null" stroke-width="2" width="177.884613" x="74.903883" y="19.999993"/>
  <rect fill="#000000" fill-opacity="0" height="35.576923" id="svg_241" stroke="#000000" stroke-dasharray="null" stroke-linecap="null" stroke-linejoin="null" stroke-width="2" transform="matrix(1, 0, 0, 1, 0, 0)" width="178.846155" x="75.384653" y="269.999999"/>
 </g>
</svg>