<?xml version="1.0"?>
<svg width="640" height="480" xmlns="http://www.w3.org/2000/svg" xmlns:svg="http://www.w3.org/2000/svg">
 <!-- Created with SVG-edit - https://github.com/SVG-Edit/svgedit-->

 <g class="layer">
  <title>Layer 1</title>
  <!-- table0 -->
  <!-- table1 -->
  <!-- table0&#45;&gt;table1 -->
  <!-- table3 -->
  <!-- table4 -->
  <!-- table3&#45;&gt;table4 -->
  <!-- table0 -->
  <!-- table1 -->
  <!-- table0&#45;&gt;table1 -->
  <!-- table3 -->
  <!-- table4 -->
  <!-- table0 -->
  <!-- table1 -->
  <!-- table0&#45;&gt;table1 -->
  <!-- table3 -->
  <!-- table3&#45;&gt;table1 -->
  <!-- table0 -->
  <!-- table1 -->
  <!-- table0&#45;&gt;table1 -->
  <!-- table3 -->
  <!-- table3&#45;&gt;table1 -->
  <polygon fill="#ffffff" id="svg_358" points="87.89492797851562,480.2296142578125 87.89492797851562,1.6126861572265625 524.2144622802734,1.6126861572265625 524.2144622802734,480.2296142578125 87.89492797851562,480.2296142578125 " stroke="transparent" transform="matrix(1, 0, 0, 1, 0, 0)"/>
  <g class="node" id="svg_356" transform="matrix(1.84101, 0, 0, 1.58482, 61.3708, 616.364)">
   <title>table0</title>
   <polyline fill="none" id="svg_359" points="26.407390594482422,-213.8985595703125 114.40738677978516,-213.8985595703125 " stroke="#000000"/>
   <text fill="#000000" font-family="Times,serif" font-size="14" id="svg_360" text-anchor="start" x="64.183291" y="-219.698575">s2</text>
   <polygon fill="none" id="svg_361" points="26.407390594482422,-193.8985595703125 26.407390594482422,-213.8985595703125 78.40738677978516,-213.8985595703125 78.40738677978516,-193.8985595703125 26.407390594482422,-193.8985595703125 " stroke="#000000"/>
   <text fill="#000000" font-family="Times,serif" font-size="14" id="svg_362" text-anchor="start" x="37.248691" y="-199.698575">name</text>
   <polygon fill="none" id="svg_363" points="78.40738677978516,-193.8985595703125 78.40738677978516,-213.8985595703125 114.40738677978516,-213.8985595703125 114.40738677978516,-193.8985595703125 78.40738677978516,-193.8985595703125 " stroke="#000000"/>
   <text fill="#000000" font-family="Times,serif" font-size="14" id="svg_364" text-anchor="start" x="81.248691" y="-199.698575">value</text>
   <polygon fill="none" id="svg_365" points="26.407390594482422,-173.89857482910156 26.407390594482422,-193.8985595703125 78.40738677978516,-193.8985595703125 78.40738677978516,-173.89857482910156 26.407390594482422,-173.89857482910156 " stroke="#000000"/>
   <text fill="#000000" font-family="Times,serif" font-size="14" id="svg_366" text-anchor="start" x="44.631491" y="-179.698575">ptr</text>
   <polygon fill="none" id="svg_367" points="78.40738677978516,-173.89857482910156 78.40738677978516,-193.8985595703125 114.40738677978516,-193.8985595703125 114.40738677978516,-173.89857482910156 78.40738677978516,-173.89857482910156 " stroke="#000000"/>
   <polygon fill="none" id="svg_368" points="26.407390594482422,-153.89857482910156 26.407390594482422,-173.89857482910156 78.40738677978516,-173.89857482910156 78.40738677978516,-153.89857482910156 26.407390594482422,-153.89857482910156 " stroke="#000000"/>
   <text fill="#000000" font-family="Times,serif" font-size="14" id="svg_369" text-anchor="start" x="43.855591" y="-159.698575">len</text>
   <polygon fill="none" id="svg_370" points="78.40738677978516,-153.89857482910156 78.40738677978516,-173.89857482910156 114.40738677978516,-173.89857482910156 114.40738677978516,-153.89857482910156 78.40738677978516,-153.89857482910156 " stroke="#000000"/>
   <text fill="#000000" font-family="Times,serif" font-size="14" id="svg_371" text-anchor="start" x="92.907391" y="-159.698575">5</text>
   <polygon fill="none" id="svg_372" points="26.407390594482422,-133.89857482910156 26.407390594482422,-153.89857482910156 78.40738677978516,-153.89857482910156 78.40738677978516,-133.89857482910156 26.407390594482422,-133.89857482910156 " stroke="#000000"/>
   <text fill="#000000" font-family="Times,serif" font-size="14" id="svg_373" text-anchor="start" x="29.089991" y="-139.698575">capacity</text>
   <polygon fill="none" id="svg_374" points="78.40738677978516,-133.89857482910156 78.40738677978516,-153.89857482910156 114.40738677978516,-153.89857482910156 114.40738677978516,-133.89857482910156 78.40738677978516,-133.89857482910156 " stroke="#000000"/>
   <text fill="#000000" font-family="Times,serif" font-size="14" id="svg_375" text-anchor="start" x="92.907391" y="-139.698575">5</text>
  </g>
  <g class="node" id="svg_355" transform="matrix(1.84101, 0, 0, 1.58482, 61.3708, 616.364)">
   <title>table1</title>
   <polygon fill="none" id="svg_376" points="166.90738677978516,-193.8985595703125 166.90738677978516,-213.8985595703125 203.90737915039062,-213.8985595703125 203.90737915039062,-193.8985595703125 166.90738677978516,-193.8985595703125 " stroke="#000000"/>
   <text fill="#000000" font-family="Times,serif" font-size="14" id="svg_377" text-anchor="start" x="169.855591" y="-199.698575">index</text>
   <polygon fill="none" id="svg_378" points="203.90737915039062,-193.8985595703125 203.90737915039062,-213.8985595703125 239.90737915039062,-213.8985595703125 239.90737915039062,-193.8985595703125 203.90737915039062,-193.8985595703125 " stroke="#000000"/>
   <text fill="#000000" font-family="Times,serif" font-size="14" id="svg_379" text-anchor="start" x="206.748691" y="-199.698575">value</text>
   <polygon fill="none" id="svg_380" points="166.90738677978516,-173.89857482910156 166.90738677978516,-193.8985595703125 203.90737915039062,-193.8985595703125 203.90737915039062,-173.89857482910156 166.90738677978516,-173.89857482910156 " stroke="#000000"/>
   <text fill="#000000" font-family="Times,serif" font-size="14" id="svg_381" text-anchor="start" x="181.907391" y="-179.698575">0</text>
   <polygon fill="none" id="svg_382" points="203.90737915039062,-173.89857482910156 203.90737915039062,-193.8985595703125 239.90737915039062,-193.8985595703125 239.90737915039062,-173.89857482910156 203.90737915039062,-173.89857482910156 " stroke="#000000"/>
   <text fill="#000000" font-family="Times,serif" font-size="14" id="svg_383" text-anchor="start" x="218.407391" y="-179.698575">h</text>
   <polygon fill="none" id="svg_384" points="166.90738677978516,-153.89857482910156 166.90738677978516,-173.89857482910156 203.90737915039062,-173.89857482910156 203.90737915039062,-153.89857482910156 166.90738677978516,-153.89857482910156 " stroke="#000000"/>
   <text fill="#000000" font-family="Times,serif" font-size="14" id="svg_385" text-anchor="start" x="181.907391" y="-159.698575">1</text>
   <polygon fill="none" id="svg_386" points="203.90737915039062,-153.89857482910156 203.90737915039062,-173.89857482910156 239.90737915039062,-173.89857482910156 239.90737915039062,-153.89857482910156 203.90737915039062,-153.89857482910156 " stroke="#000000"/>
   <text fill="#000000" font-family="Times,serif" font-size="14" id="svg_387" text-anchor="start" x="218.800491" y="-159.698575">e</text>
   <polygon fill="none" id="svg_388" points="166.90738677978516,-133.89857482910156 166.90738677978516,-153.89857482910156 203.90737915039062,-153.89857482910156 203.90737915039062,-133.89857482910156 166.90738677978516,-133.89857482910156 " stroke="#000000"/>
   <text fill="#000000" font-family="Times,serif" font-size="14" id="svg_389" text-anchor="start" x="181.907391" y="-139.698575">2</text>
   <polygon fill="none" id="svg_390" points="203.90737915039062,-133.89857482910156 203.90737915039062,-153.89857482910156 239.90737915039062,-153.89857482910156 239.90737915039062,-133.89857482910156 203.90737915039062,-133.89857482910156 " stroke="#000000"/>
   <text fill="#000000" font-family="Times,serif" font-size="14" id="svg_391" text-anchor="start" x="219.962591" y="-139.698575">l</text>
   <polygon fill="none" id="svg_392" points="166.90738677978516,-113.89857482910156 166.90738677978516,-133.89857482910156 203.90737915039062,-133.89857482910156 203.90737915039062,-113.89857482910156 166.90738677978516,-113.89857482910156 " stroke="#000000"/>
   <text fill="#000000" font-family="Times,serif" font-size="14" id="svg_393" text-anchor="start" x="181.907391" y="-119.698575">3</text>
   <polygon fill="none" id="svg_394" points="203.90737915039062,-113.89857482910156 203.90737915039062,-133.89857482910156 239.90737915039062,-133.89857482910156 239.90737915039062,-113.89857482910156 203.90737915039062,-113.89857482910156 " stroke="#000000"/>
   <text fill="#000000" font-family="Times,serif" font-size="14" id="svg_395" text-anchor="start" x="219.962591" y="-119.698575">l</text>
   <polygon fill="none" id="svg_396" points="166.90738677978516,-93.89857482910156 166.90738677978516,-113.89857482910156 203.90737915039062,-113.89857482910156 203.90737915039062,-93.89857482910156 166.90738677978516,-93.89857482910156 " stroke="#000000"/>
   <text fill="#000000" font-family="Times,serif" font-size="14" id="svg_397" text-anchor="start" x="181.907391" y="-99.698575">4</text>
   <polygon fill="none" id="svg_398" points="203.90737915039062,-93.89857482910156 203.90737915039062,-113.89857482910156 239.90737915039062,-113.89857482910156 239.90737915039062,-93.89857482910156 203.90737915039062,-93.89857482910156 " stroke="#000000"/>
   <text fill="#000000" font-family="Times,serif" font-size="14" id="svg_399" text-anchor="start" x="218.407391" y="-99.698575">o</text>
  </g>
  <g class="edge" id="svg_354" transform="matrix(1.84101, 0, 0, 1.58482, 61.3708, 616.364)">
   <title>table0:c-&gt;table1:pointee</title>
   <path d="m96.407391,-183.898575c0,0 31.3406,0 60.3797,0" fill="none" id="svg_400" stroke="#000000"/>
   <polygon fill="#000000" id="svg_401" points="156.90738677978516,-187.398681640625 166.90738677978516,-183.8985595703125 156.90738677978516,-180.398681640625 156.90738677978516,-187.398681640625 " stroke="#000000"/>
  </g>
  <g class="node" id="svg_353" transform="matrix(1.84101, 0, 0, 1.58482, 61.3708, 616.364)">
   <title>table3</title>
   <polyline fill="none" id="svg_402" points="26.407390594482422,-359.8985595703125 114.40738677978516,-359.8985595703125 " stroke="#000000"/>
   <text fill="#000000" font-family="Times,serif" font-size="14" id="svg_403" text-anchor="start" x="64.183291" y="-365.698575">s1</text>
   <polygon fill="none" id="svg_404" points="26.407390594482422,-339.8985595703125 26.407390594482422,-359.8985595703125 78.40738677978516,-359.8985595703125 78.40738677978516,-339.8985595703125 26.407390594482422,-339.8985595703125 " stroke="#000000"/>
   <text fill="#000000" font-family="Times,serif" font-size="14" id="svg_405" text-anchor="start" x="37.248691" y="-345.698575">name</text>
   <polygon fill="none" id="svg_406" points="78.40738677978516,-339.8985595703125 78.40738677978516,-359.8985595703125 114.40738677978516,-359.8985595703125 114.40738677978516,-339.8985595703125 78.40738677978516,-339.8985595703125 " stroke="#000000"/>
   <text fill="#000000" font-family="Times,serif" font-size="14" id="svg_407" text-anchor="start" x="81.248691" y="-345.698575">value</text>
   <polygon fill="none" id="svg_408" points="26.407390594482422,-319.8985595703125 26.407390594482422,-339.8985595703125 78.40738677978516,-339.8985595703125 78.40738677978516,-319.8985595703125 26.407390594482422,-319.8985595703125 " stroke="#000000"/>
   <text fill="#000000" font-family="Times,serif" font-size="14" id="svg_409" text-anchor="start" x="44.631491" y="-325.698575">ptr</text>
   <polygon fill="none" id="svg_410" points="78.40738677978516,-319.8985595703125 78.40738677978516,-339.8985595703125 114.40738677978516,-339.8985595703125 114.40738677978516,-319.8985595703125 78.40738677978516,-319.8985595703125 " stroke="#000000"/>
   <polygon fill="none" id="svg_411" points="26.407390594482422,-299.8985595703125 26.407390594482422,-319.8985595703125 78.40738677978516,-319.8985595703125 78.40738677978516,-299.8985595703125 26.407390594482422,-299.8985595703125 " stroke="#000000"/>
   <text fill="#000000" font-family="Times,serif" font-size="14" id="svg_412" text-anchor="start" x="43.855591" y="-305.698575">len</text>
   <polygon fill="none" id="svg_413" points="78.40738677978516,-299.8985595703125 78.40738677978516,-319.8985595703125 114.40738677978516,-319.8985595703125 114.40738677978516,-299.8985595703125 78.40738677978516,-299.8985595703125 " stroke="#000000"/>
   <text fill="#000000" font-family="Times,serif" font-size="14" id="svg_414" text-anchor="start" x="92.907391" y="-305.698575">5</text>
   <polygon fill="none" id="svg_415" points="26.407390594482422,-279.8985595703125 26.407390594482422,-299.8985595703125 78.40738677978516,-299.8985595703125 78.40738677978516,-279.8985595703125 26.407390594482422,-279.8985595703125 " stroke="#000000"/>
   <text fill="#000000" font-family="Times,serif" font-size="14" id="svg_416" text-anchor="start" x="29.089991" y="-285.698575">capacity</text>
   <polygon fill="none" id="svg_417" points="78.40738677978516,-279.8985595703125 78.40738677978516,-299.8985595703125 114.40738677978516,-299.8985595703125 114.40738677978516,-279.8985595703125 78.40738677978516,-279.8985595703125 " stroke="#000000"/>
   <text fill="#000000" font-family="Times,serif" font-size="14" id="svg_418" text-anchor="start" x="92.907391" y="-285.698575">5</text>
  </g>
  <g class="node" id="svg_352" transform="matrix(1.84101, 0, 0, 1.58482, 61.3708, 616.364)">
   <title>table4</title>
   <polygon fill="none" id="svg_419" points="166.90738677978516,-339.8985595703125 166.90738677978516,-359.8985595703125 203.90737915039062,-359.8985595703125 203.90737915039062,-339.8985595703125 166.90738677978516,-339.8985595703125 " stroke="#000000"/>
   <text fill="#000000" font-family="Times,serif" font-size="14" id="svg_420" text-anchor="start" x="169.855591" y="-345.698575">index</text>
   <polygon fill="none" id="svg_421" points="203.90737915039062,-339.8985595703125 203.90737915039062,-359.8985595703125 239.90737915039062,-359.8985595703125 239.90737915039062,-339.8985595703125 203.90737915039062,-339.8985595703125 " stroke="#000000"/>
   <text fill="#000000" font-family="Times,serif" font-size="14" id="svg_422" text-anchor="start" x="206.748691" y="-345.698575">value</text>
   <polygon fill="none" id="svg_423" points="166.90738677978516,-319.8985595703125 166.90738677978516,-339.8985595703125 203.90737915039062,-339.8985595703125 203.90737915039062,-319.8985595703125 166.90738677978516,-319.8985595703125 " stroke="#000000"/>
   <text fill="#000000" font-family="Times,serif" font-size="14" id="svg_424" text-anchor="start" x="181.907391" y="-325.698575">0</text>
   <polygon fill="none" id="svg_425" points="203.90737915039062,-319.8985595703125 203.90737915039062,-339.8985595703125 239.90737915039062,-339.8985595703125 239.90737915039062,-319.8985595703125 203.90737915039062,-319.8985595703125 " stroke="#000000"/>
   <text fill="#000000" font-family="Times,serif" font-size="14" id="svg_426" text-anchor="start" x="218.407391" y="-325.698575">h</text>
   <polygon fill="none" id="svg_427" points="166.90738677978516,-299.8985595703125 166.90738677978516,-319.8985595703125 203.90737915039062,-319.8985595703125 203.90737915039062,-299.8985595703125 166.90738677978516,-299.8985595703125 " stroke="#000000"/>
   <text fill="#000000" font-family="Times,serif" font-size="14" id="svg_428" text-anchor="start" x="181.907391" y="-305.698575">1</text>
   <polygon fill="none" id="svg_429" points="203.90737915039062,-299.8985595703125 203.90737915039062,-319.8985595703125 239.90737915039062,-319.8985595703125 239.90737915039062,-299.8985595703125 203.90737915039062,-299.8985595703125 " stroke="#000000"/>
   <text fill="#000000" font-family="Times,serif" font-size="14" id="svg_430" text-anchor="start" x="218.800491" y="-305.698575">e</text>
   <polygon fill="none" id="svg_431" points="166.90738677978516,-279.8985595703125 166.90738677978516,-299.8985595703125 203.90737915039062,-299.8985595703125 203.90737915039062,-279.8985595703125 166.90738677978516,-279.8985595703125 " stroke="#000000"/>
   <text fill="#000000" font-family="Times,serif" font-size="14" id="svg_432" text-anchor="start" x="181.907391" y="-285.698575">2</text>
   <polygon fill="none" id="svg_433" points="203.90737915039062,-279.8985595703125 203.90737915039062,-299.8985595703125 239.90737915039062,-299.8985595703125 239.90737915039062,-279.8985595703125 203.90737915039062,-279.8985595703125 " stroke="#000000"/>
   <text fill="#000000" font-family="Times,serif" font-size="14" id="svg_434" text-anchor="start" x="219.962591" y="-285.698575">l</text>
   <polygon fill="none" id="svg_435" points="166.90738677978516,-259.8985595703125 166.90738677978516,-279.8985595703125 203.90737915039062,-279.8985595703125 203.90737915039062,-259.8985595703125 166.90738677978516,-259.8985595703125 " stroke="#000000"/>
   <text fill="#000000" font-family="Times,serif" font-size="14" id="svg_436" text-anchor="start" x="181.907391" y="-265.698575">3</text>
   <polygon fill="none" id="svg_437" points="203.90737915039062,-259.8985595703125 203.90737915039062,-279.8985595703125 239.90737915039062,-279.8985595703125 239.90737915039062,-259.8985595703125 203.90737915039062,-259.8985595703125 " stroke="#000000"/>
   <text fill="#000000" font-family="Times,serif" font-size="14" id="svg_438" text-anchor="start" x="219.962591" y="-265.698575">l</text>
   <polygon fill="none" id="svg_439" points="166.90738677978516,-239.8985595703125 166.90738677978516,-259.8985595703125 203.90737915039062,-259.8985595703125 203.90737915039062,-239.8985595703125 166.90738677978516,-239.8985595703125 " stroke="#000000"/>
   <text fill="#000000" font-family="Times,serif" font-size="14" id="svg_440" text-anchor="start" x="181.907391" y="-245.698575">4</text>
   <polygon fill="none" id="svg_441" points="203.90737915039062,-239.8985595703125 203.90737915039062,-259.8985595703125 239.90737915039062,-259.8985595703125 239.90737915039062,-239.8985595703125 203.90737915039062,-239.8985595703125 " stroke="#000000"/>
   <text fill="#000000" font-family="Times,serif" font-size="14" id="svg_442" text-anchor="start" x="218.407391" y="-245.698575">o</text>
  </g>
  <g class="edge" id="svg_351" transform="matrix(1.84101, 0, 0, 1.58482, 61.3708, 616.364)">
   <title>table3:c-&gt;table4:pointee</title>
   <path d="m96.407391,-329.898575c0,0 31.3406,0 60.3797,0" fill="none" id="svg_443" stroke="#000000"/>
   <polygon fill="#000000" id="svg_444" points="156.90738677978516,-333.398681640625 166.90738677978516,-329.8985595703125 156.90738677978516,-326.398681640625 156.90738677978516,-333.398681640625 " stroke="#000000"/>
  </g>
  <rect fill="#000000" fill-opacity="0" height="37.653367" id="svg_251" stroke="#000000" stroke-dasharray="null" stroke-linecap="null" stroke-linejoin="null" stroke-width="2" width="161.865784" x="109.941541" y="9.209397"/>
  <rect fill="#000000" fill-opacity="0" height="38.850623" id="svg_253" stroke="#000000" stroke-dasharray="null" stroke-linecap="null" stroke-linejoin="null" stroke-width="2" width="161.865773" x="110.008641" y="238.39604"/>
 </g>
</svg>